<svg xmlns="http://www.w3.org/2000/svg" width="165" height="18" viewBox="0 0 165 18"><path fill="#3d3935" d="M29.93 0a8.77 8.77 0 0 1 6.32 2.62l-2.13 2.1a5.68 5.68 0 0 0-4.19-1.74c-1.63 0-3.04.58-4.22 1.74a5.76 5.76 0 0 0-1.73 4.19 5.86 5.86 0 0 0 5.95 5.92 5.86 5.86 0 0 0 4.47-2v-2.44h-4.87V7.08h7.85v6.73a9.61 9.61 0 0 1-3.18 2.91 8.86 8.86 0 0 1-4.27 1.09 8.56 8.56 0 0 1-6.31-2.62A8.52 8.52 0 0 1 21 8.91c0-2.45.88-4.55 2.62-6.29A8.56 8.56 0 0 1 29.93 0M48.93 2.98a5.8 5.8 0 0 0-4.22 1.74 5.76 5.76 0 0 0-1.73 4.19 5.86 5.86 0 0 0 5.95 5.92 5.8 5.8 0 0 0 4.19-1.71 5.84 5.84 0 0 0 1.75-4.21c0-1.63-.59-3.02-1.75-4.19a5.75 5.75 0 0 0-4.19-1.74zm6.3-.36a8.54 8.54 0 0 1 2.65 6.29c0 2.48-.89 4.57-2.65 6.28a8.56 8.56 0 0 1-6.3 2.62 8.53 8.53 0 0 1-6.31-2.62A8.48 8.48 0 0 1 40 8.91c0-2.45.87-4.55 2.62-6.29A8.5 8.5 0 0 1 48.93 0c2.46 0 4.56.87 6.3 2.62zM61 0h2.96v14.83h8.93v2.98H61V0M81.93 14.83a5.78 5.78 0 0 0 4.2-1.74 5.88 5.88 0 0 0-.01-8.37 5.75 5.75 0 0 0-4.19-1.74h-2.97v11.85zm0-14.83c1.21 0 2.36.24 3.44.71a9.13 9.13 0 0 1 4.78 4.76 8.5 8.5 0 0 1 .7 3.44c0 1.21-.23 2.36-.7 3.43a9.02 9.02 0 0 1-8.22 5.47H76V0zM102.95 0a8.65 8.65 0 0 1 6.3 2.62l-2.11 2.1a5.72 5.72 0 0 0-4.19-1.74c-.82 0-1.59.15-2.31.46-.72.31-1.35.73-1.9 1.27a6.37 6.37 0 0 0-1.28 1.89 5.56 5.56 0 0 0-.48 2.31c0 .82.16 1.59.48 2.31.32.71.74 1.34 1.27 1.88a5.77 5.77 0 0 0 4.22 1.73c1.61 0 3.01-.57 4.19-1.71l2.11 2.07a8.89 8.89 0 0 1-6.3 2.62 8.62 8.62 0 0 1-3.47-.71A8.93 8.93 0 0 1 94 8.91c0-1.2.23-2.34.71-3.43a9.17 9.17 0 0 1 1.92-2.85A9.3 9.3 0 0 1 99.48.71a8.62 8.62 0 0 1 3.47-.71M119.93 2.98c-1.63 0-3.04.58-4.22 1.74a5.75 5.75 0 0 0-1.72 4.19 5.85 5.85 0 0 0 5.94 5.92c1.63 0 3.02-.57 4.19-1.71a5.8 5.8 0 0 0 1.75-4.21 5.7 5.7 0 0 0-1.75-4.19 5.73 5.73 0 0 0-4.19-1.74zm6.3-.36a8.54 8.54 0 0 1 2.65 6.29c0 2.48-.89 4.57-2.65 6.28a8.52 8.52 0 0 1-6.3 2.62 8.55 8.55 0 0 1-6.31-2.62A8.52 8.52 0 0 1 111 8.91c0-2.45.88-4.55 2.62-6.29A8.5 8.5 0 0 1 119.93 0c2.47 0 4.57.87 6.3 2.62zM140.93 2.98h-5.97v5.9l5.97.03c.8 0 1.5-.29 2.08-.88.58-.58.88-1.28.88-2.1 0-.81-.3-1.5-.88-2.08a2.85 2.85 0 0 0-2.08-.87zm-.93 8.9h-5.04v5.93H132V0h8.93c1.62 0 3.02.58 4.19 1.75a5.68 5.68 0 0 1 1.75 4.18 5.7 5.7 0 0 1-1.06 3.36 5.76 5.76 0 0 1-2.62 2.13l3.68 6.39h-3.42zM152.96 2.98v5.93h5.97c.8 0 1.5-.29 2.08-.88.58-.58.88-1.27.88-2.08 0-.82-.3-1.52-.88-2.1a2.85 2.85 0 0 0-2.08-.87zm0 14.83H150V0h8.93a5.7 5.7 0 0 1 4.19 1.75 5.73 5.73 0 0 1 1.75 4.2 5.8 5.8 0 0 1-1.75 4.21 5.75 5.75 0 0 1-4.19 1.72h-5.97z"/><path fill="#b89d18" d="M4 10.38h13.67V7H4zM0 16.38h17.64V13H0zM9 4.38h8.58V1H9z"/></svg>